<svg width="28" height="28" viewBox="0 0 28 28" fill="none" xmlns="http://www.w3.org/2000/svg">
<path d="M14 0C21.7196 0 28 5.43237 28 12.1101C28 18.7878 21.7196 24.2196 14 24.2196C13.6382 24.2196 13.2658 24.2063 12.8895 24.1802C8.76288 27.5205 5.37936 27.9739 5.2332 27.9921C5.19064 27.9976 5.14808 28 5.10552 28C4.71352 28 4.34616 27.7767 4.14232 27.4058C3.9172 26.9944 3.93568 26.4785 4.18936 26.0877C4.20224 26.0676 5.29032 24.3883 6.43104 22.3042C2.43376 20.0909 0 16.2813 0 12.1101C0 5.43237 6.2804 0 14 0ZM14 21.792C20.4842 21.792 25.76 17.4484 25.76 12.1095C25.76 6.77059 20.4842 2.42761 14 2.42761C7.51576 2.42761 2.24 6.7712 2.24 12.1101C2.24 15.6666 4.61552 18.9335 8.43976 20.6346C8.736 20.7663 8.9656 21.0291 9.07144 21.3569C9.17728 21.6846 9.14872 22.0457 8.99192 22.3485C8.57248 23.1636 8.14016 23.9477 7.73976 24.6469C8.89392 24.1079 10.3242 23.2692 11.863 21.9759C12.0859 21.7878 12.367 21.6979 12.647 21.7259C13.109 21.7702 13.5643 21.792 14 21.792Z" fill="#27104E"/>
</svg>
