<svg width="24" height="24" viewBox="0 0 24 24" fill="none" xmlns="http://www.w3.org/2000/svg">
<path d="M12 0C5.0946 0 0.6 3.43148 0.6 9.3913V12C0.6 12 0 12.9668 0 14.087C0 15.587 1.4028 16.7901 2.4 17.2174C3.5376 21.3433 9 24 12 24C15 24 20.4624 21.3433 21.6 17.2174C22.5972 16.7901 24 15.4025 24 13.9025C24 12.7823 23.4 12 23.4 12V9.3913C23.4 2.35513 17.6027 1.95958 17.6027 1.95958C17.6027 1.95958 15.8886 0 12 0ZM12 2.08696C15.6366 2.08696 16.2094 3.99864 16.2094 3.99864C16.2094 3.99864 21 4.29183 21 9.3913V11.4783H20.7879C20.2365 9.372 18.7127 6.7521 15.8813 6.05401C15.8813 6.05401 13.1263 9.66626 4.59492 9.3913L3.39492 11.4783H3V9.3913C3 4.74939 6.2802 2.08696 12 2.08696ZM16.4461 8.64334C17.3557 9.35186 18.883 11.8743 18.9094 13.5652H21.5625C21.5844 13.6702 21.6 13.7804 21.6 13.9025C21.6 15.0535 19.5293 15.7785 19.5293 15.7785C19.5293 19.234 14.0502 21.913 12 21.913C9.9498 21.913 4.4707 19.0279 4.4707 15.7785C4.4707 15.7785 2.4 15.2598 2.4 14.087C2.4 13.8943 2.42657 13.724 2.46211 13.5652H4.87969L6.08203 11.4732C11.1886 11.4043 14.1643 10.603 16.4461 8.64334Z" fill="#27104E"/>
</svg>
